<svg preserveAspectRatio="none" width="100%" height="100%" overflow="visible" style="display: block;" viewBox="0 0 32 32" fill="none" xmlns="http://www.w3.org/2000/svg">
<g id="Icon" clip-path="url(#clip0_0_672)">
<path id="Vector" d="M16 31.5774C17.127 31.5774 18.1333 31.2956 19.0189 30.7321C19.9044 30.1686 20.6088 29.4239 21.1321 28.4981C22.1384 28.7799 23.1648 28.8 24.2113 28.5585C25.2176 28.3572 26.1233 27.8541 26.9283 27.0491C27.7333 26.244 28.2365 25.3182 28.4377 24.2717C28.6792 23.2654 28.6591 22.2591 28.3774 21.2528C29.3031 20.7296 30.0478 20.0252 30.6113 19.1396C31.1748 18.2541 31.4566 17.2478 31.4566 16.1208C31.4566 14.9937 31.1748 13.9874 30.6113 13.1019C30.0478 12.2164 29.3031 11.5119 28.3774 10.9887C28.6591 9.98239 28.6792 8.95597 28.4377 7.90943C28.2365 6.90314 27.7333 5.99748 26.9283 5.19245C26.1233 4.38742 25.2176 3.88428 24.2113 3.68302C23.1648 3.44151 22.1384 3.46164 21.1321 3.7434C20.6088 2.81761 19.9044 2.07296 19.0189 1.50943C18.1333 0.945912 17.127 0.664151 16 0.664151C14.873 0.664151 13.8667 0.945912 12.9811 1.50943C12.0956 2.07296 11.3912 2.81761 10.8679 3.7434C9.86164 3.46164 8.83522 3.44151 7.78868 3.68302C6.78239 3.88428 5.87673 4.38742 5.0717 5.19245C4.26667 5.99748 3.76352 6.90314 3.56226 7.90943C3.32075 8.95597 3.34088 9.98239 3.62264 10.9887C2.69686 11.5119 1.9522 12.2164 1.38868 13.1019C0.825157 13.9874 0.543396 14.9937 0.543396 16.1208C0.543396 17.2478 0.825157 18.2541 1.38868 19.1396C1.9522 20.0252 2.69686 20.7296 3.62264 21.2528C3.34088 22.2591 3.32075 23.2855 3.56226 24.3321C3.76352 25.3384 4.26667 26.244 5.0717 27.0491C5.87673 27.8541 6.80252 28.3572 7.84906 28.5585C8.85535 28.8 9.86164 28.7799 10.8679 28.4981C11.3912 29.4239 12.0956 30.1686 12.9811 30.7321C13.8667 31.2956 14.873 31.5774 16 31.5774ZM22.8226 18.9585C23.3862 19.6428 23.3862 20.327 22.8226 21.0113C22.1384 21.5748 21.4541 21.5748 20.7698 21.0113L14.0679 14.3094L11.2302 17.1472C10.5459 17.7107 9.86164 17.7107 9.17736 17.1472C8.61384 16.4629 8.61384 15.7786 9.17736 15.0943L13.0415 11.2302C13.7258 10.6667 14.4101 10.6667 15.0943 11.2302L22.8226 18.9585Z" fill="var(--fill-0, #958CF1)"/>
</g>
<defs>
<clipPath id="clip0_0_672">
<rect width="32" height="32" fill="white"/>
</clipPath>
</defs>
</svg>
