<svg preserveAspectRatio="none" width="100%" height="100%" overflow="visible" style="display: block;" viewBox="0 0 25.5918 25.5918" fill="none" xmlns="http://www.w3.org/2000/svg">
<g id="eos-icons:ai">
<path id="Vector" d="M22.3928 11.7297V9.59705H20.2602V7.4644C20.2585 6.89931 20.0332 6.35784 19.6336 5.95825C19.2341 5.55867 18.6926 5.33344 18.1275 5.33175H15.9948V3.1991H13.8622V5.33175H11.7295V3.1991H9.5969V5.33175H7.46425C6.89915 5.33344 6.35768 5.55867 5.9581 5.95825C5.55851 6.35784 5.33328 6.89931 5.3316 7.4644V9.59705H3.19894V11.7297H5.3316V13.8624H3.19894V15.995H5.3316V18.1277C5.33328 18.6928 5.55851 19.2342 5.9581 19.6338C6.35768 20.0334 6.89915 20.2586 7.46425 20.2603H9.5969V22.393H11.7295V20.2603H13.8622V22.393H15.9948V20.2603H18.1275C18.6926 20.2586 19.2341 20.0334 19.6336 19.6338C20.0332 19.2342 20.2585 18.6928 20.2602 18.1277V15.995H22.3928V13.8624H20.2602V11.7297H22.3928ZM18.1275 18.1277H7.46425V7.4644H18.1275V18.1277Z" fill="var(--fill-0, #42489E)"/>
<path id="Vector_2" d="M12.1146 8.53072H10.6804L8.53706 17.0613H9.63218L10.127 15.062H12.5966L13.0785 17.0613H14.211L12.1146 8.53072ZM10.2709 14.2078L11.3564 9.54373H11.4055L12.4537 14.2078H10.2709ZM15.1888 8.53072H16.2551V17.0613H15.1888V8.53072Z" fill="var(--fill-0, #42489E)"/>
</g>
</svg>
