<svg preserveAspectRatio="none" width="100%" height="100%" overflow="visible" style="display: block;" viewBox="0 0 13.8855 13.5485" fill="none" xmlns="http://www.w3.org/2000/svg">
<g id="Group">
<path id="Vector" fill-rule="evenodd" clip-rule="evenodd" d="M6.94274 0.000116348C3.09531 0.000116348 0 3.09542 0 6.94286C0 10.0092 1.99604 12.6128 4.74421 13.5385C5.09135 13.5963 5.20706 13.3938 5.20706 13.1913C5.20706 13.0178 5.20706 12.5838 5.20706 12.0053C3.26888 12.4392 2.86388 11.0796 2.86388 11.0796C2.54567 10.2696 2.08282 10.0671 2.08282 10.0671C1.44641 9.63318 2.14068 9.63318 2.14068 9.63318C2.83495 9.69103 3.21102 10.3564 3.21102 10.3564C3.81851 11.4267 4.83099 11.1085 5.23599 10.9349C5.29384 10.4721 5.46741 10.1828 5.66991 10.0092C4.13672 9.83567 2.51674 9.22818 2.51674 6.5668C2.51674 5.81467 2.7771 5.17825 3.23995 4.7154C3.18209 4.54183 2.92174 3.84755 3.2978 2.864C3.2978 2.864 3.87637 2.69043 5.20706 3.5872C5.75669 3.44256 6.36418 3.35578 6.94274 3.35578C7.52131 3.35578 8.1288 3.44256 8.67843 3.5872C10.0091 2.69043 10.5877 2.864 10.5877 2.864C10.9638 3.81863 10.7323 4.5129 10.6455 4.7154C11.0795 5.20718 11.3687 5.81467 11.3687 6.5668C11.3687 9.22818 9.74877 9.80675 8.18665 9.98031C8.44701 10.1828 8.6495 10.6167 8.6495 11.2532C8.6495 12.1789 8.6495 12.931 8.6495 13.1624C8.6495 13.336 8.76522 13.5674 9.14128 13.5095C11.8895 12.6128 13.8855 10.0092 13.8855 6.94286C13.8855 3.09542 10.7902 0.000116348 6.94274 0.000116348Z" fill="var(--fill-0, white)"/>
</g>
</svg>
