<svg preserveAspectRatio="none" width="100%" height="100%" overflow="visible" style="display: block;" viewBox="0 0 50.0019 31.8214" fill="none" xmlns="http://www.w3.org/2000/svg">
<path id="Vector" d="M22.8709 21.8497C25.0017 20.4312 26.6195 18.3645 27.4849 15.9554C28.3503 13.5463 28.4175 10.9226 27.6765 8.47232C26.9355 6.02207 25.4256 3.87533 23.3701 2.34956C21.3147 0.823795 18.8228 0 16.2629 0C13.7031 0 11.2112 0.823795 9.15575 2.34956C7.1003 3.87533 5.59043 6.02207 4.84941 8.47232C4.10839 10.9226 4.17556 13.5463 5.041 15.9554C5.90644 18.3645 7.52419 20.4312 9.65502 21.8497C5.80055 23.2704 2.50874 25.8992 0.270781 29.344C0.153162 29.5188 0.071463 29.7153 0.0304342 29.9219C-0.0105947 30.1286 -0.0101353 30.3414 0.0317856 30.5479C0.0737064 30.7543 0.156253 30.9504 0.274626 31.1247C0.392999 31.299 0.544838 31.4481 0.721317 31.5632C0.897796 31.6783 1.09539 31.7572 1.30263 31.7952C1.50986 31.8333 1.72259 31.8298 1.92846 31.7849C2.13432 31.7401 2.32922 31.6547 2.50181 31.5339C2.6744 31.413 2.82125 31.2591 2.93382 31.081C4.37741 28.8607 6.35277 27.0361 8.6805 25.7731C11.0082 24.5101 13.6146 23.8485 16.2629 23.8485C18.9113 23.8485 21.5177 24.5101 23.8454 25.7731C26.1731 27.0361 28.1485 28.8607 29.5921 31.081C29.8253 31.4275 30.1855 31.6684 30.5948 31.7515C31.0042 31.8346 31.4298 31.7533 31.7797 31.5251C32.1296 31.2969 32.3756 30.9402 32.4646 30.532C32.5535 30.1239 32.4783 29.6971 32.2551 29.344C30.0172 25.8992 26.7253 23.2704 22.8709 21.8497ZM7.51863 11.9289C7.51863 10.1994 8.03147 8.50882 8.99231 7.07083C9.95315 5.63283 11.3188 4.51205 12.9166 3.85021C14.5145 3.18838 16.2726 3.01521 17.9689 3.35261C19.6651 3.69001 21.2232 4.52283 22.4461 5.74574C23.669 6.96866 24.5018 8.52674 24.8392 10.223C25.1766 11.9192 25.0035 13.6774 24.3416 15.2752C23.6798 16.873 22.559 18.2387 21.121 19.1995C19.683 20.1604 17.9924 20.6732 16.2629 20.6732C13.9446 20.6706 11.722 19.7485 10.0827 18.1092C8.44338 16.4699 7.52126 14.2472 7.51863 11.9289ZM49.2807 31.544C48.9275 31.7743 48.4974 31.8549 48.0848 31.768C47.6723 31.6812 47.3111 31.4341 47.0807 31.081C45.6389 28.8593 43.6638 27.034 41.3355 25.7715C39.0073 24.509 36.4001 23.8494 33.7516 23.853C33.3299 23.853 32.9255 23.6855 32.6274 23.3873C32.3292 23.0892 32.1617 22.6848 32.1617 22.2631C32.1617 21.8414 32.3292 21.437 32.6274 21.1389C32.9255 20.8407 33.3299 20.6732 33.7516 20.6732C35.0393 20.672 36.3109 20.3864 37.4755 19.8368C38.64 19.2872 39.6688 18.4871 40.4883 17.4938C41.3079 16.5005 41.8979 15.3385 42.2162 14.0907C42.5346 12.8429 42.5734 11.5402 42.33 10.2757C42.0865 9.01122 41.5668 7.81608 40.8079 6.77572C40.049 5.73535 39.0697 4.87544 37.9399 4.25742C36.8102 3.63941 35.5579 3.27855 34.2725 3.20062C32.9871 3.12269 31.7004 3.32962 30.5043 3.80663C30.3092 3.89094 30.0993 3.9353 29.8868 3.9371C29.6744 3.93889 29.4637 3.89808 29.2673 3.81708C29.0709 3.73608 28.8927 3.61653 28.7432 3.4655C28.5938 3.31447 28.4761 3.13501 28.3972 2.93774C28.3183 2.74047 28.2798 2.52938 28.2838 2.31695C28.2879 2.10452 28.3345 1.89506 28.4208 1.70094C28.5072 1.50682 28.6316 1.33199 28.7867 1.18676C28.9418 1.04154 29.1244 0.928871 29.3238 0.855422C32.0613 -0.236324 35.1061 -0.275612 37.8708 0.745138C40.6356 1.76589 42.9244 3.77435 44.2956 6.38306C45.6669 8.99176 46.0235 12.0159 45.2967 14.872C44.5698 17.7281 42.811 20.2139 40.3595 21.8497C44.214 23.2704 47.5058 25.8992 49.7438 29.344C49.974 29.6972 50.0546 30.1273 49.9678 30.5399C49.881 30.9525 49.6338 31.3136 49.2807 31.544Z" fill="var(--fill-0, #42389E)"/>
</svg>
