<svg preserveAspectRatio="none" width="100%" height="100%" overflow="visible" style="display: block;" viewBox="0 0 18.2367 18.2367" fill="none" xmlns="http://www.w3.org/2000/svg">
<g id="elements">
<path id="Ellipse 1335" opacity="0.3" d="M17.4838 9.11834C17.4838 4.49823 13.7384 0.75289 9.11834 0.75289C4.49823 0.75289 0.75289 4.49823 0.75289 9.11834C0.75289 13.7384 4.49823 17.4838 9.11834 17.4838C13.7384 17.4838 17.4838 13.7384 17.4838 9.11834Z" fill="var(--fill-0, white)"/>
<path id="Ellipse 438" d="M0.75289 9.11834C0.752891 13.7384 4.49823 17.4838 9.11834 17.4838C13.7384 17.4838 17.4838 13.7384 17.4838 9.11834C17.4838 4.49823 13.7384 0.75289 9.11834 0.75289" stroke="var(--stroke-0, white)" stroke-width="1.50578" stroke-linecap="round"/>
<path id="Ellipse 439" d="M2.96852 3.32841C3.08426 3.20574 3.20353 3.08643 3.32618 2.97066M5.7281 1.36306C5.87994 1.29481 6.0341 1.23079 6.19043 1.17116M1.36501 5.72358C1.29602 5.87688 1.23135 6.03255 1.17116 6.19043" stroke="var(--stroke-0, white)" stroke-width="1.50578" stroke-linecap="round" stroke-linejoin="round"/>
<path id="Vector" d="M9.11834 5.77216V12.4645M12.4645 9.11834L5.77216 9.11834" stroke="var(--stroke-0, white)" stroke-width="1.50578" stroke-linecap="round" stroke-linejoin="round"/>
</g>
</svg>
