<svg preserveAspectRatio="none" width="100%" height="100%" overflow="visible" style="display: block;" viewBox="0 0 155.268 60" fill="none" xmlns="http://www.w3.org/2000/svg">
<g id="Frame 1618872620">
<g id="Group 1707478281">
<path id="Vector" d="M22.73 23.5735L23.874 23.5935L26.982 20.4855L27.132 19.1685C24.662 16.9715 21.412 15.6345 17.855 15.6345C11.415 15.6345 5.97899 20.0165 4.36899 25.9525C4.70899 25.7155 5.43399 25.8925 5.43399 25.8925L11.646 24.8705C11.646 24.8705 11.966 24.3405 12.126 24.3735C13.4594 22.9148 15.2992 22.0198 17.2699 21.8711C19.2406 21.7225 21.1928 22.3313 22.73 23.5735Z" fill="var(--fill-0, #42389E)"/>
<path id="Vector_2" d="M31.36 25.9635C30.6459 23.3362 29.1807 20.9743 27.144 19.1675L22.742 23.5695C23.6454 24.2955 24.3745 25.215 24.8755 26.2601C25.3765 27.3053 25.6367 28.4495 25.637 29.6085V30.3855C27.779 30.3855 29.517 32.1285 29.517 34.2655C29.517 36.4025 27.774 38.1455 25.637 38.1455H17.875L17.098 38.9255V43.5835L17.875 44.3565H25.637C28.3102 44.3493 30.8718 43.2838 32.7613 41.3929C34.6509 39.502 35.7147 36.9397 35.72 34.2665C35.716 30.8305 33.984 27.7865 31.35 25.9635H31.36Z" fill="var(--fill-0, #42389E)"/>
<path id="Vector_3" d="M10.094 44.3634H17.854V38.1514H10.094C9.54291 38.1517 8.99825 38.0334 8.49698 37.8044L7.37698 38.1474L4.26898 41.2554L3.99698 42.3054C5.74563 43.6481 7.89034 44.3726 10.095 44.3654L10.094 44.3634Z" fill="var(--fill-0, #42389E)"/>
<path id="Vector_4" d="M10.094 24.1765C7.41821 24.1807 4.85322 25.2456 2.96114 27.1376C1.06906 29.0297 0.00423135 31.5947 4.91194e-10 34.2705C-1.53802e-05 35.8286 0.361179 37.3655 1.05521 38.7606C1.74925 40.1556 2.75723 41.3707 4 42.3105L8.5 37.8105C7.81836 37.5038 7.23982 37.0068 6.83392 36.3791C6.42803 35.7515 6.21207 35.02 6.212 34.2725C6.212 32.1305 7.955 30.3925 10.092 30.3925C10.8392 30.3938 11.5702 30.6103 12.1976 31.016C12.825 31.4218 13.3223 31.9996 13.63 32.6805L18.13 28.1805C16.284 25.7505 13.37 24.1805 10.09 24.1805L10.094 24.1765Z" fill="var(--fill-0, #42389E)"/>
</g>
<path id="Vector_5" d="M51.4941 35.4289C49.3741 35.4289 47.5541 34.6789 46.0201 33.1789C44.4861 31.6789 43.7201 29.8749 43.7201 27.7709C43.7201 25.6669 44.4851 23.8629 46.0201 22.3629C47.5551 20.8629 49.3771 20.1119 51.4941 20.1119C52.4653 20.0978 53.4296 20.2771 54.3307 20.6393C55.2319 21.0016 56.052 21.5395 56.7431 22.2219L55.2661 23.6989C54.2554 22.7216 52.8989 22.1841 51.4931 22.2039C49.9631 22.2039 48.6631 22.7439 47.5971 23.8309C47.0786 24.3459 46.6697 24.9606 46.3952 25.6379C46.1207 26.3152 45.9863 27.0412 46.0001 27.7719C46.0001 29.3179 46.5301 30.6289 47.5971 31.7119C48.0986 32.238 48.7037 32.6542 49.3744 32.9343C50.045 33.2144 50.7665 33.3521 51.4931 33.3389C53.0511 33.3389 54.3381 32.8389 55.3631 31.8049C55.9631 31.2049 56.3631 30.3049 56.5031 29.1699H51.4971V27.0779H58.5411C58.6161 27.4499 58.6411 27.8779 58.6411 28.3779C58.6411 30.4339 58.0381 32.0639 56.8281 33.2729C55.4561 34.7079 53.6781 35.4229 51.4831 35.4229L51.4941 35.4289ZM67.8641 34.0289C66.9041 34.9689 65.7341 35.4289 64.3521 35.4289C62.9701 35.4289 61.7981 34.9589 60.8401 34.0289C59.8821 33.0989 59.4021 31.9159 59.4021 30.5089C59.4021 29.1019 59.8821 27.9289 60.8401 26.9889C61.7981 26.0489 62.9701 25.5889 64.3521 25.5889C65.7341 25.5889 66.9061 26.0589 67.8641 26.9889C68.8221 27.9189 69.3021 29.1049 69.3021 30.5089C69.3021 31.9129 68.8221 33.0889 67.8641 34.0289ZM62.3901 32.6489C62.6396 32.92 62.9433 33.1357 63.2814 33.2819C63.6196 33.4282 63.9847 33.5018 64.3531 33.4979C65.1131 33.4979 65.7671 33.2159 66.3161 32.6479C66.8651 32.0799 67.1381 31.3679 67.1381 30.5079C67.1381 29.6379 66.8681 28.9199 66.3251 28.3579C65.7821 27.7959 65.1271 27.5179 64.3531 27.5179C63.984 27.5122 63.6177 27.5841 63.2781 27.7287C62.9384 27.8734 62.6328 28.0878 62.3811 28.3579C61.8381 28.9179 61.5681 29.6339 61.5681 30.5079C61.5681 31.3659 61.8411 32.0809 62.3901 32.6479V32.6489ZM78.6631 34.0289C77.7031 34.9689 76.5331 35.4289 75.1511 35.4289C73.7691 35.4289 72.5971 34.9589 71.6391 34.0289C70.6811 33.0989 70.2011 31.9159 70.2011 30.5089C70.2011 29.1019 70.6811 27.9289 71.6391 26.9889C72.5971 26.0489 73.7691 25.5889 75.1511 25.5889C76.5331 25.5889 77.7051 26.0589 78.6631 26.9889C79.6211 27.9189 80.1011 29.1049 80.1011 30.5089C80.1011 31.9129 79.6211 33.0889 78.6631 34.0289ZM73.1891 32.6489C73.4386 32.92 73.7423 33.1357 74.0805 33.2819C74.4186 33.4282 74.7837 33.5018 75.1521 33.4979C75.9121 33.4979 76.5661 33.2159 77.1151 32.6479C77.6641 32.0799 77.9371 31.3679 77.9371 30.5079C77.9371 29.6379 77.6671 28.9199 77.1241 28.3579C76.5811 27.7959 75.9261 27.5179 75.1521 27.5179C74.783 27.5122 74.4167 27.5841 74.0771 27.7287C73.7374 27.8734 73.4318 28.0878 73.1801 28.3579C72.6371 28.9179 72.3671 29.6339 72.3671 30.5079C72.3671 31.3659 72.6401 32.0809 73.1891 32.6479V32.6489ZM85.7621 39.8689C84.6671 39.8689 83.7451 39.5749 82.9981 38.9889C82.2511 38.4029 81.7161 37.7249 81.3921 36.9509L83.2801 36.1679C83.4781 36.6419 83.7802 37.0529 84.2132 37.4019C84.6462 37.7509 85.1531 37.9239 85.7651 37.9239C86.5871 37.9239 87.2331 37.6739 87.6981 37.1769C88.1631 36.6799 88.3981 35.9609 88.3981 35.0269V34.3269H88.3231C87.7231 35.0739 86.8461 35.4489 85.7271 35.4489C84.4691 35.4489 83.3671 34.9689 82.4201 34.0109C81.9601 33.5581 81.597 33.0164 81.3529 32.4188C81.1088 31.8213 80.9888 31.1803 81.0001 30.5349C80.9886 29.8854 81.1084 29.2404 81.3524 28.6384C81.5965 28.0364 81.9596 27.49 82.4201 27.0319C83.3651 26.0689 84.4701 25.5849 85.7271 25.5849C86.2871 25.5849 86.7951 25.6899 87.2491 25.9029C87.7031 26.1159 88.0621 26.3769 88.3231 26.6859H88.3981V25.8919H90.4541V34.7489C90.4541 36.4689 90.0161 37.7529 89.1361 38.6089C88.2561 39.4589 87.1341 39.8889 85.7631 39.8889L85.7621 39.8689ZM85.9121 33.4969C86.2686 33.5032 86.6221 33.4303 86.947 33.2835C87.272 33.1367 87.5603 32.9196 87.7911 32.6479C88.2951 32.0809 88.5471 31.3749 88.5471 30.5259C88.5471 29.6679 88.2951 28.9499 87.7911 28.3759C87.5616 28.102 87.2738 27.8828 86.9487 27.7344C86.6236 27.586 86.2695 27.512 85.9121 27.5179C85.1521 27.5179 84.5041 27.8059 83.9701 28.3759C83.4361 28.9459 83.1661 29.6639 83.1661 30.5259C83.1661 31.3719 83.4331 32.0809 83.9701 32.6479C84.5071 33.2149 85.1531 33.4969 85.9121 33.4969ZM94.1141 20.6319V35.1319H91.9471V20.6319H94.1141ZM100.054 35.4279C98.6581 35.4279 97.4942 34.9539 96.5602 34.0079C95.6262 33.0619 95.1581 31.8919 95.1581 30.4959C95.1581 29.0519 95.6081 27.8659 96.5121 26.9459C96.9362 26.4996 97.4483 26.1462 98.016 25.908C98.5837 25.6697 99.1946 25.5519 99.8102 25.5619C100.407 25.5619 100.963 25.6699 101.473 25.8889C101.947 26.0832 102.379 26.3686 102.743 26.7289C103.047 27.0314 103.317 27.3664 103.547 27.7279C103.738 28.0368 103.9 28.3621 104.033 28.6999L104.258 29.2599L97.6641 31.9919C98.1641 32.9879 98.9641 33.4869 100.056 33.4869C101.052 33.4869 101.863 33.0339 102.484 32.1239L104.164 33.2459C103.789 33.8059 103.261 34.3109 102.576 34.7589C101.891 35.2069 101.048 35.4289 100.052 35.4289L100.054 35.4279ZM97.3081 30.3479L101.708 28.5179C101.582 28.2059 101.354 27.9539 101.008 27.7619C100.66 27.567 100.267 27.4676 99.8681 27.4739C99.2321 27.4739 98.6381 27.7339 98.0851 28.2569C97.5321 28.7799 97.2651 29.4789 97.2901 30.3489L97.3081 30.3479ZM115.638 35.4279C113.668 35.4279 112.018 34.7619 110.686 33.4279C109.354 32.0939 108.686 30.4329 108.686 28.4399C108.686 26.4469 109.352 24.7839 110.686 23.4519C112.02 22.1199 113.669 21.4519 115.638 21.4519C117.655 21.4519 119.294 22.1819 120.551 23.6369L119.356 24.7969C118.456 23.6629 117.206 23.0969 115.636 23.0969C114.176 23.0969 112.95 23.5889 111.936 24.5739C110.922 25.5589 110.432 26.8459 110.432 28.4399C110.432 30.0339 110.932 31.3239 111.936 32.3099C112.94 33.2959 114.169 33.7869 115.636 33.7869C117.242 33.7869 118.613 33.1389 119.736 31.8449L120.931 33.0399C120.305 33.7871 119.519 34.3841 118.631 34.7869C117.689 35.22 116.664 35.4393 115.627 35.4289L115.638 35.4279ZM124.194 35.1319H122.474V21.7549H124.194V35.1319ZM126.997 27.0719C127.882 26.1449 128.997 25.6789 130.379 25.6789C131.761 25.6789 132.876 26.1439 133.761 27.0719C134.646 27.9999 135.088 29.1719 135.088 30.5569C135.088 31.9419 134.648 33.1139 133.761 34.0419C132.874 34.9699 131.761 35.4349 130.379 35.4349C128.997 35.4349 127.882 34.9699 126.997 34.0419C126.112 33.1139 125.67 31.9419 125.67 30.5569C125.67 29.1719 126.11 27.9999 126.997 27.0719ZM128.277 32.9549C128.877 33.5579 129.571 33.8609 130.377 33.8609C131.183 33.8609 131.877 33.5579 132.477 32.9549C133.077 32.3519 133.365 31.5499 133.365 30.5549C133.365 29.5599 133.068 28.7569 132.477 28.1549C131.886 27.5529 131.183 27.2489 130.377 27.2489C129.571 27.2489 128.877 27.5519 128.277 28.1549C127.677 28.7579 127.389 29.5599 127.389 30.5549C127.389 31.5499 127.686 32.3529 128.277 32.9549ZM144.597 35.1319H142.952V33.8619H142.877C142.617 34.2969 142.217 34.6689 141.682 34.9619C141.147 35.2549 140.582 35.4219 139.982 35.4219C138.835 35.4219 137.968 35.0739 137.377 34.3749C136.786 33.6759 136.489 32.7419 136.489 31.5719V25.9659H138.209V31.2899C138.209 32.9979 138.962 33.8499 140.469 33.8499C140.806 33.857 141.141 33.7827 141.443 33.6334C141.746 33.484 142.008 33.264 142.207 32.9919C142.652 32.4282 142.889 31.7288 142.879 31.0109V25.9659H144.599V35.1229L144.597 35.1319ZM150.425 35.4289C149.242 35.4289 148.219 34.9609 147.361 34.0269C146.503 33.0929 146.073 31.9349 146.073 30.5509C146.073 29.1669 146.503 28.0089 147.361 27.0749C148.219 26.1409 149.243 25.6729 150.425 25.6729C151.121 25.6729 151.749 25.8229 152.305 26.1199C152.861 26.4169 153.275 26.7919 153.548 27.2419H153.623L153.548 25.9719V21.7519H155.268V35.1319H153.623V33.8619H153.548C153.275 34.3089 152.861 34.6839 152.305 34.9839C151.75 35.2779 151.122 35.4289 150.425 35.4289ZM150.705 33.8589C151.093 33.8642 151.478 33.7869 151.834 33.6323C152.19 33.4776 152.509 33.2491 152.77 32.9619C153.337 32.3649 153.62 31.5599 153.62 30.5619C153.62 29.5639 153.338 28.7489 152.77 28.1619C152.509 27.8746 152.19 27.6461 151.834 27.4915C151.478 27.3369 151.093 27.2596 150.705 27.2649C149.907 27.2649 149.222 27.5679 148.649 28.1709C148.076 28.7739 147.791 29.5759 147.791 30.5709C147.791 31.5659 148.076 32.3689 148.649 32.9709C148.908 33.2591 149.225 33.489 149.58 33.6452C149.934 33.8014 150.318 33.8804 150.705 33.8769V33.8589Z" fill="var(--fill-0, #42389E)"/>
</g>
</svg>
