<svg preserveAspectRatio="none" width="100%" height="100%" overflow="visible" style="display: block;" viewBox="0 0 120 60" fill="none" xmlns="http://www.w3.org/2000/svg">
<g id="ibm-ar21">
<path id="Vector" d="M20.824 14.33V16.474H36.074V14.33H20.824ZM38.236 14.33V16.474H59.97C59.97 16.474 57.75 14.33 54.81 14.33H38.236ZM64.233 14.33V16.474H77.38L76.6 14.33H64.233ZM86.808 14.33L86.028 16.474H99.058V14.33H86.808ZM20.824 18.5V20.644H36.074V18.5H20.824ZM38.236 18.503V20.643H62.49C62.49 20.643 62.207 18.993 61.713 18.503H38.236ZM64.233 18.503V20.643H78.833L78.111 18.503H64.233ZM85.247 18.503L84.525 20.643H99.057V18.503H85.247ZM25.207 22.67V24.817H31.812V22.67H25.207ZM42.619 22.67V24.817H49.224V22.67H42.619ZM55.649 22.67V24.817H62.254C62.254 24.817 62.674 23.683 62.674 22.67H55.649ZM68.617 22.67V24.817H80.317L79.537 22.67H68.617ZM83.81 22.67L83.026 24.817H94.794V22.67H83.81ZM25.208 26.843V28.987H31.813V26.843H25.208ZM42.62 26.843V28.987H59.49C59.49 28.987 60.9 27.887 61.35 26.843H42.62ZM68.617 26.843V28.987H75.222V27.793L75.642 28.987H87.742L88.192 27.793V28.987H94.797V26.843H82.397L81.739 28.659L81.079 26.843H68.617ZM25.207 31.013V33.157H31.812V31.013H25.207ZM42.619 31.013V33.157H61.349C60.899 32.117 59.489 31.013 59.489 31.013H42.619ZM68.616 31.013V33.157H75.221V31.013H68.616ZM76.421 31.013L77.221 33.157H86.293L87.053 31.013H76.421ZM88.189 31.013V33.157H94.794V31.013H88.189ZM25.209 35.183V37.327H31.814V35.183H25.209ZM42.621 35.183V37.327H49.226V35.183H42.621ZM55.651 35.183V37.327H62.675C62.675 36.315 62.255 35.183 62.255 35.183H55.651ZM68.619 35.183V37.327H75.224V35.183H68.619ZM77.923 35.183L78.697 37.327H84.777L85.557 35.183H77.923ZM88.191 35.183V37.327H94.796V35.183H88.191ZM20.946 39.353V41.5H36.196V39.353H20.946ZM38.239 39.353V41.5H61.717C62.211 41.008 62.494 39.353 62.494 39.353H38.239ZM64.355 39.353V41.5H75.22V39.353H64.355ZM79.425 39.353L80.221 41.5H83.315L84.062 39.353H79.425ZM88.191 39.353V41.5H99.179V39.353H88.191ZM20.946 43.526V45.67H36.196V43.526H20.946ZM38.239 43.526V45.666H54.81C57.75 45.666 59.97 43.526 59.97 43.526H38.239ZM64.355 43.526V45.67H75.22V43.526H64.355ZM80.935 43.526L81.7 45.664L81.832 45.667L82.609 43.527L80.935 43.526ZM88.192 43.526V45.67H99.18V43.526H88.192Z" fill="var(--fill-0, #42389E)"/>
</g>
</svg>
