<svg preserveAspectRatio="none" width="100%" height="100%" overflow="visible" style="display: block;" viewBox="0 0 104.78 36.2991" fill="none" xmlns="http://www.w3.org/2000/svg">
<g id="Group">
<path id="Vector" d="M18.004 36.0021V29.0221C25.394 29.0221 31.129 21.6941 28.292 13.9171C27.252 11.0591 24.944 8.75315 22.066 7.71215C14.289 4.89515 6.961 10.6121 6.961 18.0001H0C0 6.21915 11.4 -2.96485 23.74 0.893149C29.13 2.58715 33.436 6.87315 35.11 12.2631C38.968 24.6131 29.782 36.0021 18.004 36.0021Z" fill="var(--fill-0, #42389E)"/>
<path id="Vector_2" fill-rule="evenodd" clip-rule="evenodd" d="M18.024 22.1011V29.0611H11.064V22.1011H18.024ZM11.064 29.0611V34.3791H5.736V29.0511L11.064 29.0611ZM5.736 29.0611H1.266V24.5911H5.736V29.0611Z" fill="var(--fill-0, #42389E)"/>
<path id="Vector_3" d="M53.754 2.14615C52.174 1.03315 50.154 0.494149 47.854 0.494149H42.827V16.4741H47.9C50.198 16.4741 52.2 15.8991 53.8 14.7141C54.662 14.1141 55.344 13.2421 55.847 12.1641C56.314 11.0871 56.565 9.79415 56.565 8.39415C56.565 6.99415 56.315 5.73715 55.847 4.66015C55.344 3.58315 54.662 2.72015 53.764 2.14615H53.754ZM45.782 3.18615H47.362C49.122 3.18615 50.558 3.54615 51.662 4.22615C52.882 4.98015 53.492 6.38115 53.492 8.39115C53.492 10.4741 52.892 11.9461 51.662 12.7361C50.622 13.4181 49.184 13.7761 47.389 13.7761H45.773V3.17915L45.782 3.18615ZM60.038 0.279149C59.535 0.279149 59.14 0.459149 58.781 0.782149C58.6176 0.940064 58.4886 1.13003 58.402 1.34013C58.3155 1.55024 58.2732 1.77596 58.278 2.00315C58.278 2.50615 58.458 2.90115 58.781 3.26015C59.104 3.58315 59.535 3.76315 60.038 3.76315C60.5053 3.75935 60.9541 3.57977 61.295 3.26015C61.618 2.93715 61.798 2.50615 61.798 2.00315C61.8028 1.77596 61.7605 1.55024 61.674 1.34013C61.5874 1.13003 61.4584 0.940064 61.295 0.782149C60.935 0.459149 60.495 0.279149 60.038 0.279149ZM58.6 5.19915H61.437V16.4741H58.6V5.19915ZM71.744 6.13215C70.882 5.37815 69.949 4.91215 68.907 4.91215C67.327 4.91215 66.034 5.45215 65.029 6.52815C64.024 7.56815 63.485 8.93415 63.485 10.5861C63.485 12.1661 63.988 13.5311 64.993 14.6081C65.998 15.6481 67.327 16.1881 68.871 16.1881C69.948 16.1881 70.918 15.9011 71.671 15.2901V15.5401C71.671 16.4741 71.421 17.1921 70.917 17.6951C70.413 18.1981 69.732 18.4491 68.87 18.4491C67.577 18.4491 66.75 17.9461 65.746 16.5821L63.806 18.4491L63.842 18.5211C64.272 19.0961 64.882 19.6711 65.745 20.2091C66.571 20.7491 67.648 21.0351 68.905 21.0351C70.593 21.0351 71.957 20.5321 72.963 19.4911C73.969 18.4501 74.471 17.0851 74.471 15.3971V5.16315H71.671V6.13315L71.744 6.13215ZM71 12.8111C70.497 13.3861 69.85 13.6371 69.06 13.6371C68.234 13.6371 67.624 13.3501 67.12 12.8111C66.617 12.2361 66.402 11.5181 66.402 10.6111C66.402 9.67715 66.652 8.95915 67.12 8.38515C67.588 7.81115 68.27 7.55915 69.06 7.55915C69.886 7.55915 70.496 7.84615 71 8.38515C71.503 8.96015 71.754 9.71515 71.754 10.6111C71.754 11.5071 71.504 12.2271 71 12.8111ZM76.95 5.19915H79.787V16.4741H76.95V5.19915ZM78.387 0.279149C77.884 0.279149 77.489 0.459149 77.13 0.782149C76.9666 0.940064 76.8376 1.13003 76.751 1.34013C76.6645 1.55024 76.6222 1.77596 76.627 2.00315C76.627 2.50615 76.807 2.90115 77.13 3.26015C77.453 3.58315 77.884 3.76315 78.387 3.76315C78.8543 3.75935 79.3031 3.57977 79.644 3.26015C79.967 2.93715 80.147 2.50615 80.147 2.00315C80.1518 1.77596 80.1095 1.55024 80.023 1.34013C79.9364 1.13003 79.8074 0.940064 79.644 0.782149C79.284 0.459149 78.89 0.279149 78.387 0.279149ZM86 2.14615H83.2V5.19815H81.584V7.78315H83.2V12.4511C83.2 13.9231 83.487 14.9651 84.062 15.5751C84.637 16.1851 85.678 16.4731 87.114 16.4731L88.479 16.4372H88.623V13.8521L87.653 13.8881C86.971 13.8881 86.54 13.7801 86.323 13.5281C86.106 13.2761 86 12.7751 86 12.0211V7.74915H88.657V5.16415H86V2.14915V2.14615ZM101.943 0.459149H104.78V16.4741H101.943V0.459149Z" fill="var(--fill-0, #42389E)"/>
<path id="Vector_4" d="M98.388 6.05915C97.526 5.34115 96.341 4.94615 94.868 4.94615C93.934 4.94615 93.038 5.16115 92.248 5.54615C91.494 5.90615 90.776 6.55115 90.308 7.34115L90.344 7.37715L92.174 9.10115C92.928 7.91615 93.754 7.48515 94.867 7.48515C95.467 7.48515 95.944 7.62915 96.339 7.95215C96.699 8.27515 96.914 8.67015 96.914 9.17215V9.71215C96.196 9.49715 95.514 9.38915 94.831 9.38915C93.431 9.38915 92.281 9.71215 91.431 10.3591C90.581 11.0061 90.138 11.9751 90.138 13.1961C90.138 14.2731 90.498 15.0991 91.251 15.7461C92.005 16.3461 92.903 16.6801 93.981 16.6801C95.059 16.6801 96.064 16.2501 96.997 15.4951V16.4291H99.797V9.17515C99.689 7.84515 99.257 6.76915 98.397 6.05115L98.388 6.05915ZM93.361 12.1631C93.684 11.9481 94.161 11.8401 94.726 11.8401C95.408 11.8401 96.126 11.9841 96.881 12.2351V13.3481C96.281 13.9231 95.445 14.2101 94.439 14.2101C93.936 14.2101 93.577 14.1021 93.289 13.8871C93.1633 13.7898 93.0622 13.6644 92.9936 13.521C92.925 13.3775 92.8909 13.2201 92.894 13.0611C92.8838 12.8833 92.9219 12.706 93.0041 12.548C93.0863 12.3899 93.2096 12.257 93.361 12.1631V12.1631Z" fill="var(--fill-0, #42389E)"/>
<path id="Vector_5" d="M68.172 31.9791C67.669 32.5541 67.132 33.0561 66.736 33.3091C66.34 33.5621 65.838 33.7041 65.264 33.7041C64.438 33.7041 63.756 33.4171 63.217 32.7701C62.677 32.1701 62.391 31.3341 62.391 30.4001C62.391 29.4301 62.678 28.6401 63.217 28.0301C63.756 27.4201 64.437 27.0961 65.264 27.0961C66.162 27.0961 67.131 27.6711 67.957 28.6401L69.824 26.8452C68.604 25.2651 67.059 24.5111 65.192 24.5111C63.648 24.5111 62.292 25.0861 61.17 26.1991C60.048 27.3121 59.518 28.7131 59.518 30.3991C59.518 32.0851 60.093 33.4871 61.17 34.5991C62.283 35.7141 63.61 36.2991 65.19 36.2991C67.237 36.2991 68.89 35.4011 70.038 33.7851L68.17 31.9791H68.172ZM79.842 26.3061C79.447 25.7311 78.908 25.3011 78.226 24.9761C77.544 24.6511 76.754 24.4731 75.892 24.4731C74.312 24.4731 73.019 25.0481 72.05 26.1971C71.116 27.3471 70.614 28.7471 70.614 30.4341C70.614 32.1581 71.154 33.5581 72.158 34.6341C73.198 35.7111 74.564 36.2501 76.252 36.2501C78.155 36.2501 79.735 35.4501 80.92 33.9521L80.992 33.8801L79.125 32.0851C78.945 32.3001 78.695 32.5151 78.479 32.7311C78.192 32.9811 77.939 33.1981 77.653 33.3311C77.2068 33.5514 76.7145 33.6622 76.217 33.6541C75.417 33.6541 74.781 33.4391 74.277 32.9721C73.81 32.5421 73.523 31.9671 73.451 31.2481H80.956L80.992 30.2081C80.992 29.4901 80.884 28.7721 80.705 28.1251C80.526 27.4781 80.238 26.8681 79.843 26.2951L79.842 26.3061ZM73.63 28.9631C73.774 28.4231 74.025 27.9581 74.384 27.6331C74.779 27.2381 75.282 27.0581 75.856 27.0581C76.538 27.0581 77.076 27.2381 77.436 27.6331C77.7744 27.9975 77.9774 28.467 78.011 28.9631H73.63Z" fill="var(--fill-0, #42389E)"/>
<path id="Vector_6" d="M90.722 25.5791C89.86 24.8611 88.675 24.4661 87.202 24.4661C86.268 24.4661 85.372 24.6811 84.582 25.0661C83.828 25.4261 83.11 26.0711 82.642 26.8611L82.678 26.8971L84.508 28.6211C85.262 27.4361 86.088 27.0051 87.201 27.0051C87.801 27.0051 88.278 27.1491 88.673 27.4721C89.033 27.7951 89.248 28.1901 89.248 28.6921V29.2321C88.53 29.0171 87.848 28.9091 87.165 28.9091C85.765 28.9091 84.615 29.2321 83.765 29.8791C82.915 30.5261 82.472 31.4951 82.472 32.7161C82.472 33.7931 82.832 34.6191 83.585 35.2661C84.339 35.8661 85.237 36.2001 86.315 36.2001C87.393 36.2001 88.398 35.7701 89.331 35.0151V35.9491H92.131V28.6951C92.023 27.3651 91.591 26.2891 90.731 25.5711L90.722 25.5791ZM85.695 31.6831C86.018 31.4681 86.495 31.3601 87.06 31.3601C87.742 31.3601 88.46 31.5041 89.215 31.7551V32.8681C88.615 33.4431 87.779 33.7301 86.773 33.7301C86.27 33.7301 85.911 33.6221 85.623 33.4071C85.4973 33.3098 85.3962 33.1844 85.3276 33.041C85.259 32.8975 85.2249 32.7401 85.228 32.5811C85.2178 32.4033 85.2559 32.226 85.3381 32.068C85.4202 31.9099 85.5436 31.777 85.695 31.6831V31.6831Z" fill="var(--fill-0, #42389E)"/>
<path id="Vector_7" d="M102.93 25.7941C102.13 24.8961 101.027 24.4642 99.626 24.4642C98.513 24.4642 97.579 24.7871 96.896 25.4341V24.7521H94.131V35.9922H96.968V29.7792C96.968 28.9172 97.183 28.2352 97.568 27.7792C97.953 27.3232 98.502 27.0612 99.256 27.0612C99.902 27.0612 100.369 27.2762 100.728 27.7072C101.087 28.1382 101.268 28.7471 101.268 29.4671V36.0021H104.105V29.4671C104.105 27.9231 103.71 26.6672 102.92 25.8042L102.93 25.7941ZM49.823 36.2442C47.6327 36.2439 45.5321 35.3737 43.9833 33.8249C42.4345 32.276 41.5643 30.1755 41.564 27.9852C41.5643 25.7948 42.4345 23.6943 43.9833 22.1454C45.5321 20.5966 47.6327 19.7264 49.823 19.7262C52.0133 19.7264 54.1139 20.5966 55.6627 22.1454C57.2115 23.6943 58.0817 25.7948 58.082 27.9852C58.0817 30.1755 57.2115 32.276 55.6627 33.8249C54.1139 35.3737 52.0133 36.2439 49.823 36.2442ZM49.823 22.6442C46.878 22.6442 44.473 25.0502 44.473 27.9942C44.473 30.9382 46.879 33.3441 49.823 33.3441C52.767 33.3441 55.173 30.9382 55.173 27.9942C55.173 25.0502 52.767 22.6442 49.823 22.6442Z" fill="var(--fill-0, #42389E)"/>
</g>
</svg>
