<svg preserveAspectRatio="none" width="100%" height="100%" overflow="visible" style="display: block;" viewBox="0 0 111.854 31.1899" fill="none" xmlns="http://www.w3.org/2000/svg">
<g id="Group">
<path id="Vector" d="M56.7664 14.9936H54.9743V7.99693C54.9652 7.30473 54.9913 6.6123 55.0522 5.92262C54.9942 6.26813 54.8889 6.60402 54.7393 6.92084L51.457 15.0586H50.2073L46.9197 7.00215L46.6068 5.91713C46.6847 6.37821 46.6847 7.06926 46.6847 8.06908V15.0749H44.9649V4.23725H47.5436L50.437 11.46L50.9054 12.69C51.0241 12.2423 51.1808 11.8055 51.3738 11.3844L54.3433 4.16166H56.8445L56.7664 14.9936ZM60.1266 5.6189C59.982 5.62653 59.8374 5.60304 59.7026 5.55001C59.5678 5.49698 59.446 5.41565 59.3453 5.31151C59.1355 5.14522 59.0189 4.88776 59.0325 4.62069C59.0027 4.3504 59.1225 4.08562 59.3453 3.92986C59.5683 3.74998 59.8409 3.64271 60.1266 3.62247C60.2713 3.61484 60.4159 3.63833 60.5507 3.69136C60.6854 3.74439 60.8073 3.82572 60.9079 3.92986C61.1178 4.09615 61.2343 4.35361 61.2208 4.62069C61.2506 4.89097 61.1308 5.15575 60.9079 5.31151C60.8073 5.41565 60.6854 5.49698 60.5507 5.55001C60.4159 5.60304 60.2713 5.62653 60.1266 5.6189ZM60.9856 14.9936H59.188V7.23372H60.9856V14.9936ZM69.0327 14.6883C68.4069 15.0717 67.6258 15.2311 66.7667 15.2311C65.5948 15.2311 64.6562 14.8477 63.9527 14.155C63.2493 13.4624 62.8677 12.542 62.8677 11.3881C62.8677 10.0825 63.2583 9.08241 64.0396 8.31371C64.8209 7.54501 65.8372 7.16157 67.1645 7.16157C67.8091 7.16172 68.4469 7.29214 69.0398 7.54501V9.15456C68.5404 8.7833 67.9417 8.56926 67.3201 8.53978C66.5413 8.53978 65.9132 8.76952 65.4448 9.30826C64.9638 9.85656 64.7119 10.5688 64.7414 11.2976C64.7414 12.0661 64.9764 12.7566 65.4446 13.2182C65.9274 13.6795 66.5747 13.9283 67.2422 13.909C67.9046 13.9003 68.542 13.6552 69.0398 13.2182V14.6887L69.0327 14.6883ZM75.3623 8.92642C75.079 8.76036 74.7535 8.68065 74.4232 8.69668C73.8804 8.69668 73.4841 8.92642 73.094 9.38751C72.7039 9.84859 72.5512 10.4725 72.5512 11.3081V14.9975H70.7536V7.23372H72.5512V8.84671C72.6989 8.35333 72.9674 7.90459 73.3322 7.54111C73.674 7.23258 74.1216 7.06743 74.582 7.08003C74.8251 7.07654 75.0658 7.12913 75.2854 7.23372L75.3623 8.92642ZM80.1266 15.2304C78.8769 15.2304 77.9385 14.847 77.2332 14.1543C76.528 13.4617 76.1482 12.4635 76.1482 11.3141C76.1482 10.0085 76.5387 9.00842 77.32 8.23972C78.1013 7.47102 79.1177 7.1547 80.3671 7.1547C81.6166 7.1547 82.5553 7.53813 83.2605 8.23972C83.9658 8.94131 84.2679 9.9251 84.2679 11.2307C84.3009 12.3313 83.9129 13.403 83.1829 14.2272C82.3095 14.9029 81.2307 15.2579 80.1266 15.235V15.2304ZM80.2045 8.46878C79.5016 8.46878 78.955 8.69905 78.5645 9.1596C78.174 9.62068 77.9387 10.3117 77.9387 11.1489C77.9387 11.9861 78.1737 12.608 78.5645 13.0695C78.9553 13.5311 79.5036 13.7604 80.2045 13.7604C80.9054 13.7604 81.4542 13.5306 81.8445 13.0695C82.2348 12.6085 82.3874 11.9934 82.3874 11.0802C82.3874 10.2357 82.2316 9.54556 81.8445 9.09088C81.6259 8.88434 81.3681 8.72357 81.0864 8.618C80.8048 8.51242 80.5049 8.46418 80.2043 8.47611L80.2045 8.46878ZM85.5195 14.7638V13.1467C86.2226 13.6078 86.9263 13.9152 87.7076 13.9152C88.8009 13.9152 89.3476 13.6078 89.3476 12.993C89.3315 12.8295 89.2782 12.6718 89.1919 12.5319C89.0989 12.3895 88.9617 12.2816 88.8013 12.2246C88.6266 12.1343 88.4452 12.0573 88.2585 11.9948L87.5553 11.7651C87.2626 11.6519 86.9759 11.524 86.6963 11.3816C86.4743 11.247 86.2649 11.0927 86.0706 10.9206C85.8967 10.7469 85.7634 10.5369 85.68 10.3058C85.5834 10.0608 85.5308 9.80062 85.5245 9.53731C85.5191 9.19025 85.5998 8.84727 85.7595 8.5391C85.9108 8.2371 86.1583 7.99405 86.4629 7.84827C86.7758 7.61853 87.0887 7.54088 87.4792 7.38719C87.864 7.29832 88.2564 7.24684 88.6511 7.23349C89.3158 7.21054 89.9787 7.31488 90.6042 7.54088V9.08012C90.0522 8.70548 89.3957 8.5155 88.729 8.53749C88.5174 8.51966 88.3043 8.54555 88.1032 8.61354C87.9474 8.68958 87.7903 8.68958 87.6348 8.767C87.4957 8.82656 87.3842 8.9365 87.3219 9.07439C87.2591 9.1919 87.2321 9.32521 87.244 9.45783C87.2315 9.61557 87.2581 9.77397 87.3216 9.91891C87.3836 10.0571 87.4953 10.1668 87.6345 10.2263C87.8093 10.3165 87.9907 10.3935 88.1774 10.456C88.4124 10.5321 88.5679 10.6095 88.8806 10.6858C89.178 10.8459 89.4914 10.9745 89.8156 11.0692C90.1285 11.1453 90.284 11.3766 90.5188 11.5303C90.6932 11.7206 90.85 11.9264 90.9872 12.1451C91.0834 12.4166 91.136 12.7016 91.1429 12.9896C91.1429 13.373 91.0651 13.7581 90.8301 13.9878C90.6584 14.2756 90.4171 14.5157 90.1285 14.686C89.7791 14.8672 89.4164 15.0213 89.0434 15.147C87.8604 15.4457 86.6095 15.309 85.5188 14.7618L85.5195 14.7638ZM96.3841 15.2304C95.1344 15.2304 94.196 14.847 93.4907 14.1543C92.7855 13.4617 92.4057 12.4635 92.4057 11.3141C92.4057 10.0085 92.7962 9.00842 93.5775 8.23972C94.3588 7.47102 95.3751 7.1547 96.6246 7.1547C97.8741 7.1547 98.8128 7.53813 99.518 8.23972C100.223 8.94131 100.534 9.93059 100.534 11.2362C100.567 12.3368 100.179 13.4085 99.4493 14.2327C98.5642 14.8985 97.4824 15.2504 96.375 15.2327L96.3841 15.2304ZM96.462 8.46878C95.7591 8.46878 95.2124 8.69905 94.822 9.1596C94.4315 9.62068 94.1962 10.3117 94.1962 11.1489C94.1962 11.9861 94.4312 12.608 94.822 13.0695C95.2128 13.5311 95.7611 13.7604 96.462 13.7604C97.1629 13.7604 97.7117 13.5306 98.102 13.0695C98.4923 12.6085 98.6449 11.9934 98.6449 11.0802C98.6449 10.2357 98.4891 9.54556 98.102 9.09088C97.884 8.88159 97.6261 8.7182 97.3437 8.61039C97.0613 8.50259 96.7602 8.45256 96.4581 8.46328L96.462 8.46878ZM106.692 5.00549C106.433 4.84912 106.136 4.76945 105.833 4.77575C104.974 4.77575 104.504 5.23684 104.504 6.23482V7.31137H106.302V8.69485H104.504V15.0767H102.714V8.69302H101.385V7.30954H102.714V6.07952C102.714 5.23501 102.949 4.62046 103.493 4.15892C103.92 3.831 104.42 3.61053 104.95 3.51606C105.48 3.42159 106.025 3.45588 106.54 3.61606V4.99954H106.69L106.692 5.00549ZM111.854 14.9173C111.541 15.0705 111.072 15.147 110.447 15.147C108.885 15.147 108.181 14.4562 108.181 12.9951V8.6172H106.852V7.23372H108.181V5.46543L109.978 5.00435V7.31H111.854V8.69348H109.978V12.5416C109.953 12.8905 110.035 13.2387 110.213 13.5398C110.369 13.7695 110.682 13.8472 111.072 13.8472C111.351 13.8511 111.623 13.7676 111.851 13.6085V14.9141L111.854 14.9173ZM55.918 30.951H53.8854L52.8691 28.1859H48.4928L47.5537 30.9528H45.5229L49.6642 20.1186H51.6913L55.918 30.951ZM52.4007 26.725L50.8385 22.4229C50.7699 22.1968 50.7179 21.9659 50.683 21.7321C50.6481 21.9659 50.5962 22.1968 50.5275 22.4229L49.0428 26.725H52.4007ZM63.0379 23.9541L58.8171 29.5602H63.0363V30.9437H56.309V30.2657L60.6871 24.5746H56.7811V23.1912H63.1105V23.9544L63.0379 23.9541ZM71.4671 30.951H69.6694V29.7233C69.4369 30.1587 69.086 30.5196 68.6573 30.7644C68.2286 31.0091 67.7395 31.1278 67.2463 31.1068C65.371 31.1068 64.4324 30.0307 64.4324 27.8029V23.1907H66.23V27.6467C66.23 29.0296 66.7767 29.721 67.87 29.721C68.1175 29.731 68.3643 29.6878 68.5936 29.5941C68.8229 29.5005 69.0294 29.3587 69.1992 29.1784C69.5503 28.743 69.7418 28.2005 69.7418 27.6412V23.1907H71.5376L71.4671 30.951ZM78.3441 24.8818C78.0608 24.7157 77.7353 24.636 77.405 24.6521C76.8622 24.6521 76.4659 24.8818 76.0758 25.3429C75.6858 25.804 75.533 26.4279 75.533 27.2635V30.9526H73.7354V23.1907H75.533V24.8037C75.6807 24.3103 75.9492 23.8616 76.314 23.4981C76.6526 23.1925 77.0928 23.0276 77.5509 23.037C77.7941 23.0335 78.0348 23.0861 78.2544 23.1907L78.3441 24.8818ZM86.3138 27.5709H80.9231C80.9231 28.2617 81.1581 28.8765 81.6262 29.2617C82.0168 29.6452 82.6426 29.8765 83.4239 29.8765C84.2721 29.8953 85.1014 29.6242 85.7749 29.1081V30.4915C85.066 30.9558 84.1257 31.1879 82.9538 31.1879C82.448 31.2048 81.944 31.1172 81.4736 30.9305C81.0031 30.7438 80.5762 30.4621 80.2196 30.1028C79.5164 29.412 79.2033 28.412 79.2033 27.1064C79.1663 26.0279 79.5562 24.9784 80.2883 24.1857C80.6349 23.8088 81.0584 23.5108 81.5301 23.3118C82.0018 23.1127 82.5108 23.0173 83.0225 23.032C84.1076 23.032 84.8978 23.3394 85.5238 24.0302C86.1498 24.721 86.3828 25.6432 86.3828 26.8704L86.3138 27.5709ZM84.5941 26.3409C84.5941 25.7261 84.4383 25.1887 84.1257 24.8818C83.9764 24.6975 83.7848 24.5519 83.5672 24.4574C83.3497 24.3629 83.1126 24.3223 82.876 24.3389C82.6285 24.3289 82.3817 24.3722 82.1524 24.4658C81.9231 24.5594 81.7165 24.7012 81.5468 24.8816C81.1562 25.265 81.0039 25.7261 80.921 26.3406L84.5941 26.3409Z" fill="var(--fill-0, #42389E)"/>
<path id="Vector_2" fill-rule="evenodd" clip-rule="evenodd" d="M24.4583 4.63283L18.6312 16.3688L28.8927 28.2594L9.85157 30.421L39.398 30.7302L24.4583 4.63283ZM23.3091 0L9.93105 11.1957L0 27.9509L8.45366 27.1034L23.3091 0Z" fill="var(--fill-0, #42389E)"/>
</g>
</svg>
